<svg xmlns="http://www.w3.org/2000/svg" viewBox="0 0 24 24" width="256" height="256" aria-hidden="true">
  <title>WhatsApp</title>
  <path fill="#25D366" d="M12 .5C5.66.5.99 5.17.99 11.5c0 2.02.53 3.92 1.53 5.6L.5 23.5l6.73-1.76c1.57.86 3.33 1.31 5.27 1.31 6.34 0 11.01-4.67 11.01-11.01C23.51 5.17 18.84.5 12 .5z"/>
  <path fill="#fff" d="M17.58 14.41c-.26-.13-1.53-.75-1.77-.83-.24-.09-.41-.13-.59.13-.17.26-.67.83-.82 1-.15.17-.3.19-.56.06-.26-.13-1.09-.4-2.08-1.28-.77-.66-1.29-1.47-1.44-1.73-.15-.26-.02-.4.12-.53.13-.12.28-.31.41-.47.13-.15.17-.26.26-.43.09-.17.04-.31-.02-.43-.06-.13-.59-1.43-.81-1.95-.21-.51-.43-.44-.59-.45-.15-.01-.35-.01-.54-.01-.19 0-.5.07-.76.31-.26.24-1 1-1 2.45s1.03 2.84 1.17 3.04c.14.21 2.02 3.25 4.9 4.56 2.88 1.31 2.88.87 3.4.82.52-.05 1.66-.68 1.9-1.34.24-.66.24-1.22.17-1.34-.07-.12-.24-.19-.5-.31z"/>
</svg>